<svg width="1295" height="139" xmlns="http://www.w3.org/2000/svg">

 <g>
  <title>Layer 1</title>
  <g id="imagebot_196">
   <path transform="matrix(6.90238 0 0 6.90238 0 -0.862798)" id="imagebot_3" fill="#71BFEA" d="M6.147,20.229C20.376,20.229 19.92,0.125 34.15,0.125L28.004,0.125C13.775,0.125 14.23,20.229 0,20.229L6.147,20.229z" stroke-width="0.25" stroke="#000000"/>
   <path transform="matrix(6.90238 0 0 6.90238 0 -0.862798)" id="imagebot_4" fill="#00994B" d="M19.58,20.229C33.809,20.229 33.354,0.125 47.583,0.125L41.435,0.125C27.206,0.125 27.662,20.229 13.432,20.229L19.58,20.229z" stroke-width="0.25" stroke="#000000"/>
   <path transform="matrix(6.90238 0 0 6.90238 0 -0.862798)" id="imagebot_5" fill="#006EAF" d="M56.008,20.229C41.779,20.229 42.232,0.125 28.005,0.125L34.151,0.125C48.379,0.125 47.924,20.229 62.154,20.229L56.008,20.229z" stroke-width="0.25" stroke="#000000"/>
   <path transform="matrix(6.90238 0 0 6.90238 0 -0.862798)" id="imagebot_6" fill="#71BFEA" d="M62.154,20.229C76.382,20.229 75.927,0.125 90.157,0.125L84.008,0.125C69.781,0.125 70.237,20.229 56.008,20.229L62.154,20.229z" stroke-width="0.25" stroke="#000000"/>
   <path transform="matrix(6.90238 0 0 6.90238 0 -0.862798)" id="imagebot_7" fill="#00994B" d="M75.586,20.229C89.815,20.229 89.358,0.125 103.589,0.125L97.441,0.125C83.212,0.125 83.667,20.229 69.438,20.229L75.585,20.229L75.586,20.229z" stroke-width="0.25" stroke="#000000"/>
   <path transform="matrix(6.90238 0 0 6.90238 0 -0.862798)" id="imagebot_8" fill="#006EAF" d="M112.01,20.229C97.781,20.229 98.236,0.125 84.007,0.125L90.156,0.125C104.384,0.125 103.929,20.229 118.161,20.229L112.011,20.229L112.01,20.229z" stroke-width="0.25" stroke="#000000"/>
   <path transform="matrix(6.90238 0 0 6.90238 0 -0.862798)" id="imagebot_9" fill="#71BFEA" d="M118.16,20.229C132.386,20.229 131.931,0.125 146.163,0.125L140.013,0.125C125.784,0.125 126.239,20.229 112.01,20.229L118.16,20.229z" stroke-width="0.25" stroke="#000000"/>
   <path transform="matrix(6.90238 0 0 6.90238 0 -0.862798)" id="imagebot_10" fill="#00994B" d="M131.59,20.229C145.819,20.229 145.364,0.125 159.593,0.125L153.446,0.125C139.217,0.125 139.672,20.229 125.443,20.229L131.593,20.229L131.59,20.229z" stroke-width="0.25" stroke="#000000"/>
   <path transform="matrix(6.90238 0 0 6.90238 0 -0.862798)" id="imagebot_11" fill="#006EAF" d="M168.02,20.229C153.791,20.229 154.246,0.125 140.017,0.125L146.167,0.125C160.394,0.125 159.938,20.229 174.171,20.229L168.021,20.229L168.02,20.229z" stroke-width="0.25" stroke="#000000"/>
   <path transform="matrix(6.90238 0 0 6.90238 0 -0.862798)" id="imagebot_42" fill="#82C995" d="M69.438,20.229C55.209,20.229 55.664,0.125 41.435,0.125L47.583,0.125C61.812,0.125 61.355,20.229 75.586,20.229L69.438,20.229z" stroke-width="0.25" stroke="#000000"/>
   <path transform="matrix(6.90238 0 0 6.90238 0 -0.862798)" id="imagebot_43" fill="#82C995" d="M125.44,20.229C111.211,20.229 111.666,0.125 97.437,0.125L103.585,0.125C117.814,0.125 117.359,20.229 131.588,20.229L125.448,20.229L125.44,20.229z" stroke-width="0.25" stroke="#000000"/>
   <path transform="matrix(6.90238 0 0 6.90238 0 -0.862798)" id="imagebot_44" fill="#82C995" d="M181.45,20.229C167.221,20.229 167.676,0.125 153.446,0.125L159.593,0.125C173.822,0.125 173.367,20.229 187.597,20.229L181.447,20.229L181.45,20.229z" stroke-width="0.25" stroke="#000000"/>
   <g transform="translate(2.4576 0.4096) matrix(1.19912 0 0 1.19912 1034.03 115.039)" id="imagebot_48">
    <path transform="translate(-29.696 -144.896) matrix(6.90236 0.0183582 -0.00721038 2.71097 -3.9264 78.512)" id="imagebot_13" d="M 17.263696074805242 12.418717345264998 L 17.263696074805242 14.658824884531345 C 17.263696074805242 14.82748926660165 17.373741492531284 14.964146974888887 17.509679949722273 14.964146974888887 C 17.64525878136514 14.964146974888887 17.755304199091178 14.82748926660165 17.755304199091178 14.658824884531345 L 17.755304199091178 12.418717345264998 C 17.755304199091178 12.249693337646569 17.64525878136514 12.11303562935933 17.509679949722273 12.11303562935933 C 17.373741492531284 12.11303562935933 17.263696074805242 12.249693337646569 17.263696074805242 12.418717345264998 z"/>
    <text transform="translate(-31.232 -145.408) matrix(0.802511 0 0 0.802511 24.7754 20.8565)" xml:space="preserve" text-anchor="middle" font-family="serif" font-size="24" id="imagebot_46" y="110" x="117" fill-opacity="null" stroke-opacity="null" stroke-linecap="round" stroke-linejoin="round" stroke-dasharray="null" stroke-width="0" stroke="#000000" fill="#000000">A</text>
    <text transform="translate(-16.896 -174.592) matrix(0.829242 0 0 0.829242 5.38456 50.7461)" xml:space="preserve" text-anchor="middle" font-family="serif" font-size="24" id="imagebot_47" y="137" x="118" fill-opacity="null" stroke-opacity="null" stroke-linecap="round" stroke-linejoin="round" stroke-dasharray="null" stroke-width="0" stroke="#000000" fill="#000000">T</text>
   </g>
   <g id="imagebot_49" transform="translate(2.4576 0) matrix(1.06622 0 0 1.06622 1025.85 86.2579)">
    <path id="imagebot_50" transform="translate(-29.696 -144.896) matrix(6.90236 0.0183582 -0.00721038 2.71097 -3.9264 78.512)" d="M17.2637,12.41872L17.2637,14.65882C17.2637,14.82749 17.37374,14.96415 17.50968,14.96415C17.64526,14.96415 17.7553,14.82749 17.7553,14.65882L17.7553,12.41872C17.7553,12.24969 17.64526,12.11304 17.50968,12.11304C17.37374,12.11304 17.2637,12.24969 17.2637,12.41872z"/>
    <text id="imagebot_51" transform="translate(-31.232 -145.408) matrix(0.802511 0 0 0.802511 24.7754 20.8565)" xml:space="preserve" text-anchor="middle" font-family="serif" font-size="24" y="110" x="117" fill-opacity="null" stroke-opacity="null" stroke-linecap="round" stroke-linejoin="round" stroke-dasharray="null" stroke-width="0" stroke="#000000" fill="#000000">A</text>
    <text id="imagebot_52" transform="translate(-16.896 -174.592) matrix(0.829242 0 0 0.829242 5.38456 50.7461)" xml:space="preserve" text-anchor="middle" font-family="serif" font-size="24" y="137" x="118" fill-opacity="null" stroke-opacity="null" stroke-linecap="round" stroke-linejoin="round" stroke-dasharray="null" stroke-width="0" stroke="#000000" fill="#000000">T</text>
   </g>
   <g id="imagebot_53" transform="translate(0.4096 0.8192) matrix(0.720677 0 0 0.720677 1020.82 40.1355)">
    <path id="imagebot_54" transform="translate(-29.696 -144.896) matrix(6.90236 0.0183582 -0.00721038 2.71097 -3.9264 78.512)" d="M17.2637,12.41872L17.2637,14.65882C17.2637,14.82749 17.37374,14.96415 17.50968,14.96415C17.64526,14.96415 17.7553,14.82749 17.7553,14.65882L17.7553,12.41872C17.7553,12.24969 17.64526,12.11304 17.50968,12.11304C17.37374,12.11304 17.2637,12.24969 17.2637,12.41872z"/>
    <text id="imagebot_55" transform="translate(-31.232 -145.408) matrix(0.802511 0 0 0.802511 24.7754 20.8565)" xml:space="preserve" text-anchor="middle" font-family="serif" font-size="24" y="110" x="117" fill-opacity="null" stroke-opacity="null" stroke-linecap="round" stroke-linejoin="round" stroke-dasharray="null" stroke-width="0" stroke="#000000" fill="#000000">A</text>
    <text id="imagebot_56" transform="translate(-16.896 -174.592) matrix(0.829242 0 0 0.829242 5.38456 50.7461)" xml:space="preserve" text-anchor="middle" font-family="serif" font-size="24" y="137" x="118" fill-opacity="null" stroke-opacity="null" stroke-linecap="round" stroke-linejoin="round" stroke-dasharray="null" stroke-width="0" stroke="#000000" fill="#000000">T</text>
   </g>
   <g id="imagebot_57" transform="translate(0.4096 0.8192) matrix(0.853577 0 0 0.853577 893.414 56.332)">
    <path id="imagebot_58" transform="translate(-29.696 -144.896) matrix(6.90236 0.0183582 -0.00721038 2.71097 -3.9264 78.512)" d="M17.2637,12.41872L17.2637,14.65882C17.2637,14.82749 17.37374,14.96415 17.50968,14.96415C17.64526,14.96415 17.7553,14.82749 17.7553,14.65882L17.7553,12.41872C17.7553,12.24969 17.64526,12.11304 17.50968,12.11304C17.37374,12.11304 17.2637,12.24969 17.2637,12.41872z"/>
    <text id="imagebot_59" transform="translate(-31.232 -145.408) matrix(0.802511 0 0 0.802511 24.7754 20.8565)" xml:space="preserve" text-anchor="middle" font-family="serif" font-size="24" y="110" x="117" fill-opacity="null" stroke-opacity="null" stroke-linecap="round" stroke-linejoin="round" stroke-dasharray="null" stroke-width="0" stroke="#000000" fill="#000000">A</text>
    <text id="imagebot_60" transform="translate(-16.896 -174.592) matrix(0.829242 0 0 0.829242 5.38456 50.7461)" xml:space="preserve" text-anchor="middle" font-family="serif" font-size="24" y="137" x="118" fill-opacity="null" stroke-opacity="null" stroke-linecap="round" stroke-linejoin="round" stroke-dasharray="null" stroke-width="0" stroke="#000000" fill="#000000">T</text>
   </g>
   <g id="imagebot_61" transform="translate(786.651 85.2238) matrix(0.880158 0 0 0.880158 -84.1954 46.8383)">
    <path id="imagebot_62" transform="translate(-29.696 -144.896) matrix(6.90236 0.0183582 -0.00721038 2.71097 -3.9264 78.512)" d="M17.2637,12.41872L17.2637,14.65882C17.2637,14.82749 17.37374,14.96415 17.50968,14.96415C17.64526,14.96415 17.7553,14.82749 17.7553,14.65882L17.7553,12.41872C17.7553,12.24969 17.64526,12.11304 17.50968,12.11304C17.37374,12.11304 17.2637,12.24969 17.2637,12.41872z"/>
    <text id="imagebot_63" transform="translate(-31.232 -145.408) matrix(0.802511 0 0 0.802511 24.7754 20.8565)" xml:space="preserve" text-anchor="middle" font-family="serif" font-size="24" y="110" x="117" fill-opacity="null" stroke-opacity="null" stroke-linecap="round" stroke-linejoin="round" stroke-dasharray="null" stroke-width="0" stroke="#000000" fill="#000000">A</text>
    <text id="imagebot_64" transform="translate(-16.896 -174.592) matrix(0.829242 0 0 0.829242 5.38456 50.7461)" xml:space="preserve" text-anchor="middle" font-family="serif" font-size="24" y="137" x="118" fill-opacity="null" stroke-opacity="null" stroke-linecap="round" stroke-linejoin="round" stroke-dasharray="null" stroke-width="0" stroke="#000000" fill="#000000">T</text>
   </g>
   <g id="imagebot_65" transform="translate(750.197 35.6622) matrix(1.11938 0 0 1.11938 -107.079 59.5687)">
    <path id="imagebot_66" transform="translate(-29.696 -144.896) matrix(6.90236 0.0183582 -0.00721038 2.71097 -3.9264 78.512)" d="M17.2637,12.41872L17.2637,14.65882C17.2637,14.82749 17.37374,14.96415 17.50968,14.96415C17.64526,14.96415 17.7553,14.82749 17.7553,14.65882L17.7553,12.41872C17.7553,12.24969 17.64526,12.11304 17.50968,12.11304C17.37374,12.11304 17.2637,12.24969 17.2637,12.41872z"/>
    <text id="imagebot_67" transform="translate(-31.232 -145.408) matrix(0.802511 0 0 0.802511 24.7754 20.8565)" xml:space="preserve" text-anchor="middle" font-family="serif" font-size="24" y="110" x="117" fill-opacity="null" stroke-opacity="null" stroke-linecap="round" stroke-linejoin="round" stroke-dasharray="null" stroke-width="0" stroke="#000000" fill="#000000">A</text>
    <text id="imagebot_68" transform="translate(-16.896 -174.592) matrix(0.829242 0 0 0.829242 5.38456 50.7461)" xml:space="preserve" text-anchor="middle" font-family="serif" font-size="24" y="137" x="118" fill-opacity="null" stroke-opacity="null" stroke-linecap="round" stroke-linejoin="round" stroke-dasharray="null" stroke-width="0" stroke="#000000" fill="#000000">T</text>
   </g>
   <g id="imagebot_69" transform="translate(91.3408 72.9088) matrix(0.773837 0 0 0.773837 436.146 -29.2438)">
    <path id="imagebot_70" transform="translate(-29.696 -144.896) matrix(6.90236 0.0183582 -0.00721038 2.71097 -3.9264 78.512)" d="M17.2637,12.41872L17.2637,14.65882C17.2637,14.82749 17.37374,14.96415 17.50968,14.96415C17.64526,14.96415 17.7553,14.82749 17.7553,14.65882L17.7553,12.41872C17.7553,12.24969 17.64526,12.11304 17.50968,12.11304C17.37374,12.11304 17.2637,12.24969 17.2637,12.41872z"/>
    <text id="imagebot_71" transform="translate(-31.232 -145.408) matrix(0.802511 0 0 0.802511 24.7754 20.8565)" xml:space="preserve" text-anchor="middle" font-family="serif" font-size="24" y="110" x="117" fill-opacity="null" stroke-opacity="null" stroke-linecap="round" stroke-linejoin="round" stroke-dasharray="null" stroke-width="0" stroke="#000000" fill="#000000">A</text>
    <text id="imagebot_72" transform="translate(-16.896 -174.592) matrix(0.829242 0 0 0.829242 5.38456 50.7461)" xml:space="preserve" text-anchor="middle" font-family="serif" font-size="24" y="137" x="118" fill-opacity="null" stroke-opacity="null" stroke-linecap="round" stroke-linejoin="round" stroke-dasharray="null" stroke-width="0" stroke="#000000" fill="#000000">T</text>
   </g>
   <g id="imagebot_73" transform="translate(230.605 183.091) matrix(0.773837 0 0 0.773837 99.0454 -50.543)">
    <path id="imagebot_74" transform="translate(-29.696 -144.896) matrix(6.90236 0.0183582 -0.00721038 2.71097 -3.9264 78.512)" d="M17.2637,12.41872L17.2637,14.65882C17.2637,14.82749 17.37374,14.96415 17.50968,14.96415C17.64526,14.96415 17.7553,14.82749 17.7553,14.65882L17.7553,12.41872C17.7553,12.24969 17.64526,12.11304 17.50968,12.11304C17.37374,12.11304 17.2637,12.24969 17.2637,12.41872z"/>
    <text id="imagebot_75" transform="translate(-31.232 -145.408) matrix(0.802511 0 0 0.802511 24.7754 20.8565)" xml:space="preserve" text-anchor="middle" font-family="serif" font-size="24" y="110" x="117" fill-opacity="null" stroke-opacity="null" stroke-linecap="round" stroke-linejoin="round" stroke-dasharray="null" stroke-width="0" stroke="#000000" fill="#000000">A</text>
    <text id="imagebot_76" transform="translate(-16.896 -174.592) matrix(0.829242 0 0 0.829242 5.38456 50.7461)" xml:space="preserve" text-anchor="middle" font-family="serif" font-size="24" y="137" x="118" fill-opacity="null" stroke-opacity="null" stroke-linecap="round" stroke-linejoin="round" stroke-dasharray="null" stroke-width="0" stroke="#000000" fill="#000000">T</text>
   </g>
   <g id="imagebot_77" transform="translate(1.2288 -2.048) matrix(1.19912 0 0 1.19912 268.488 123.641)">
    <path id="imagebot_78" transform="translate(-29.696 -144.896) matrix(6.90236 0.0183582 -0.00721038 2.71097 -3.9264 78.512)" d="M17.2637,12.41872L17.2637,14.65882C17.2637,14.82749 17.37374,14.96415 17.50968,14.96415C17.64526,14.96415 17.7553,14.82749 17.7553,14.65882L17.7553,12.41872C17.7553,12.24969 17.64526,12.11304 17.50968,12.11304C17.37374,12.11304 17.2637,12.24969 17.2637,12.41872z"/>
    <text id="imagebot_79" transform="translate(-31.232 -145.408) matrix(0.802511 0 0 0.802511 24.7754 20.8565)" xml:space="preserve" text-anchor="middle" font-family="serif" font-size="24" y="110" x="117" fill-opacity="null" stroke-opacity="null" stroke-linecap="round" stroke-linejoin="round" stroke-dasharray="null" stroke-width="0" stroke="#000000" fill="#000000">A</text>
    <text id="imagebot_80" transform="translate(-16.896 -174.592) matrix(0.829242 0 0 0.829242 5.38456 50.7461)" xml:space="preserve" text-anchor="middle" font-family="serif" font-size="24" y="137" x="118" fill-opacity="null" stroke-opacity="null" stroke-linecap="round" stroke-linejoin="round" stroke-dasharray="null" stroke-width="0" stroke="#000000" fill="#000000">T</text>
   </g>
   <g id="imagebot_81" transform="translate(0.8192 -2.4576) matrix(0.773837 0 0 0.773837 143.692 43.2554)">
    <path id="imagebot_82" transform="translate(-29.696 -144.896) matrix(6.90236 0.0183582 -0.00721038 2.71097 -3.9264 78.512)" d="M17.2637,12.41872L17.2637,14.65882C17.2637,14.82749 17.37374,14.96415 17.50968,14.96415C17.64526,14.96415 17.7553,14.82749 17.7553,14.65882L17.7553,12.41872C17.7553,12.24969 17.64526,12.11304 17.50968,12.11304C17.37374,12.11304 17.2637,12.24969 17.2637,12.41872z"/>
    <text id="imagebot_83" transform="translate(-31.232 -145.408) matrix(0.802511 0 0 0.802511 24.7754 20.8565)" xml:space="preserve" text-anchor="middle" font-family="serif" font-size="24" y="110" x="117" fill-opacity="null" stroke-opacity="null" stroke-linecap="round" stroke-linejoin="round" stroke-dasharray="null" stroke-width="0" stroke="#000000" fill="#000000">A</text>
    <text id="imagebot_84" transform="translate(-16.896 -174.592) matrix(0.829242 0 0 0.829242 5.38456 50.7461)" xml:space="preserve" text-anchor="middle" font-family="serif" font-size="24" y="137" x="118" fill-opacity="null" stroke-opacity="null" stroke-linecap="round" stroke-linejoin="round" stroke-dasharray="null" stroke-width="0" stroke="#000000" fill="#000000">T</text>
   </g>
   <g id="imagebot_85" transform="translate(0.4096 -4.9152) matrix(1.14596 0 0 1.14596 88.8436 79.0326)">
    <path id="imagebot_86" transform="translate(-29.696 -144.896) matrix(6.90236 0.0183582 -0.00721038 2.71097 -3.9264 78.512)" d="M17.2637,12.41872L17.2637,14.65882C17.2637,14.82749 17.37374,14.96415 17.50968,14.96415C17.64526,14.96415 17.7553,14.82749 17.7553,14.65882L17.7553,12.41872C17.7553,12.24969 17.64526,12.11304 17.50968,12.11304C17.37374,12.11304 17.2637,12.24969 17.2637,12.41872z"/>
    <text id="imagebot_87" transform="translate(-31.232 -145.408) matrix(0.802511 0 0 0.802511 24.7754 20.8565)" xml:space="preserve" text-anchor="middle" font-family="serif" font-size="24" y="110" x="117" fill-opacity="null" stroke-opacity="null" stroke-linecap="round" stroke-linejoin="round" stroke-dasharray="null" stroke-width="0" stroke="#000000" fill="#000000">A</text>
    <text id="imagebot_88" transform="translate(-16.896 -174.592) matrix(0.829242 0 0 0.829242 5.38456 50.7461)" xml:space="preserve" text-anchor="middle" font-family="serif" font-size="24" y="137" x="118" fill-opacity="null" stroke-opacity="null" stroke-linecap="round" stroke-linejoin="round" stroke-dasharray="null" stroke-width="0" stroke="#000000" fill="#000000">T</text>
   </g>
   <g id="imagebot_89" transform="translate(-0.4096 0) matrix(0.561196 0 0 0.561196 55.0793 141.712)">
    <path id="imagebot_90" transform="translate(-29.696 -144.896) matrix(6.90236 0.0183582 -0.00721038 2.71097 -3.9264 78.512)" d="M17.2637,12.41872L17.2637,14.65882C17.2637,14.82749 17.37374,14.96415 17.50968,14.96415C17.64526,14.96415 17.7553,14.82749 17.7553,14.65882L17.7553,12.41872C17.7553,12.24969 17.64526,12.11304 17.50968,12.11304C17.37374,12.11304 17.2637,12.24969 17.2637,12.41872z"/>
    <text id="imagebot_91" transform="translate(-31.232 -145.408) matrix(0.802511 0 0 0.802511 24.7754 20.8565)" xml:space="preserve" text-anchor="middle" font-family="serif" font-size="24" y="110" x="117" fill-opacity="null" stroke-opacity="null" stroke-linecap="round" stroke-linejoin="round" stroke-dasharray="null" stroke-width="0" stroke="#000000" fill="#000000">A</text>
    <text id="imagebot_92" transform="translate(-16.896 -174.592) matrix(0.829242 0 0 0.829242 5.38456 50.7461)" xml:space="preserve" text-anchor="middle" font-family="serif" font-size="24" y="137" x="118" fill-opacity="null" stroke-opacity="null" stroke-linecap="round" stroke-linejoin="round" stroke-dasharray="null" stroke-width="0" stroke="#000000" fill="#000000">T</text>
   </g>
   <g transform="translate(0.8192 0) matrix(1.03291 0 0 1.03291 717.472 179.987)" id="imagebot_105">
    <path id="imagebot_102" transform="matrix(5.3413 0.0142063 -0.00557966 2.09785 91.4591 -102.733)" d="M17.2637,12.41872L17.2637,14.65882C17.2637,14.82749 17.37374,14.96415 17.50968,14.96415C17.64526,14.96415 17.7553,14.82749 17.7553,14.65882L17.7553,12.41872C17.7553,12.24969 17.64526,12.11304 17.50968,12.11304C17.37374,12.11304 17.2637,12.24969 17.2637,12.41872z"/>
    <text id="imagebot_103" transform="matrix(0.621013 0 0 0.621013 112.481 -147.745)" xml:space="preserve" text-anchor="middle" font-family="serif" font-size="24" y="110" x="117" fill-opacity="null" stroke-opacity="null" stroke-linecap="round" stroke-linejoin="round" stroke-dasharray="null" stroke-width="0" stroke="#000000" fill="#000000">T</text>
    <text id="imagebot_104" transform="matrix(0.641698 0 0 0.641698 108.569 -147.199)" xml:space="preserve" text-anchor="middle" font-family="serif" font-size="24" y="137" x="118" fill-opacity="null" stroke-opacity="null" stroke-linecap="round" stroke-linejoin="round" stroke-dasharray="null" stroke-width="0" stroke="#000000" fill="#000000">A</text>
   </g>
   <g transform="translate(0 2.4576) matrix(0.924396 0 0 0.924396 985.497 187.658)" id="imagebot_106">
    <path id="imagebot_98" transform="matrix(5.3413 0.0142063 -0.00557966 2.09785 112.758 -106.009)" d="M17.2637,12.41872L17.2637,14.65882C17.2637,14.82749 17.37374,14.96415 17.50968,14.96415C17.64526,14.96415 17.7553,14.82749 17.7553,14.65882L17.7553,12.41872C17.7553,12.24969 17.64526,12.11304 17.50968,12.11304C17.37374,12.11304 17.2637,12.24969 17.2637,12.41872z"/>
    <text id="imagebot_99" transform="matrix(0.621013 0 0 0.621013 133.78 -151.022)" xml:space="preserve" text-anchor="middle" font-family="serif" font-size="24" y="110" x="117" fill-opacity="null" stroke-opacity="null" stroke-linecap="round" stroke-linejoin="round" stroke-dasharray="null" stroke-width="0" stroke="#000000" fill="#000000">G</text>
    <text id="imagebot_100" transform="matrix(0.641698 0 0 0.641698 129.869 -150.476)" xml:space="preserve" text-anchor="middle" font-family="serif" font-size="24" y="137" x="118" fill-opacity="null" stroke-opacity="null" stroke-linecap="round" stroke-linejoin="round" stroke-dasharray="null" stroke-width="0" stroke="#000000" fill="#000000">C</text>
   </g>
   <g id="imagebot_108" transform="translate(766.66 64.334) matrix(1.23035 0 0 1.23035 -235.208 113.86)">
    <path id="imagebot_109" transform="matrix(5.3413 0.0142063 -0.00557966 2.09785 91.4591 -102.733)" d="M17.2637,12.41872L17.2637,14.65882C17.2637,14.82749 17.37374,14.96415 17.50968,14.96415C17.64526,14.96415 17.7553,14.82749 17.7553,14.65882L17.7553,12.41872C17.7553,12.24969 17.64526,12.11304 17.50968,12.11304C17.37374,12.11304 17.2637,12.24969 17.2637,12.41872z"/>
    <text id="imagebot_110" transform="matrix(0.621013 0 0 0.621013 112.481 -147.745)" xml:space="preserve" text-anchor="middle" font-family="serif" font-size="24" y="110" x="117" fill-opacity="null" stroke-opacity="null" stroke-linecap="round" stroke-linejoin="round" stroke-dasharray="null" stroke-width="0" stroke="#000000" fill="#000000">T</text>
    <text id="imagebot_111" transform="matrix(0.641698 0 0 0.641698 108.569 -147.199)" xml:space="preserve" text-anchor="middle" font-family="serif" font-size="24" y="137" x="118" fill-opacity="null" stroke-opacity="null" stroke-linecap="round" stroke-linejoin="round" stroke-dasharray="null" stroke-width="0" stroke="#000000" fill="#000000">A</text>
   </g>
   <g id="imagebot_112" transform="translate(0.8192 2.048) matrix(1.42477 0 0 1.42477 305.831 149.078)">
    <path id="imagebot_113" transform="matrix(5.3413 0.0142063 -0.00557966 2.09785 91.4591 -102.733)" d="M17.2637,12.41872L17.2637,14.65882C17.2637,14.82749 17.37374,14.96415 17.50968,14.96415C17.64526,14.96415 17.7553,14.82749 17.7553,14.65882L17.7553,12.41872C17.7553,12.24969 17.64526,12.11304 17.50968,12.11304C17.37374,12.11304 17.2637,12.24969 17.2637,12.41872z"/>
    <text id="imagebot_114" transform="matrix(0.621013 0 0 0.621013 112.481 -147.745)" xml:space="preserve" text-anchor="middle" font-family="serif" font-size="24" y="110" x="117" fill-opacity="null" stroke-opacity="null" stroke-linecap="round" stroke-linejoin="round" stroke-dasharray="null" stroke-width="0" stroke="#000000" fill="#000000">T</text>
    <text id="imagebot_115" transform="matrix(0.641698 0 0 0.641698 108.569 -147.199)" xml:space="preserve" text-anchor="middle" font-family="serif" font-size="24" y="137" x="118" fill-opacity="null" stroke-opacity="null" stroke-linecap="round" stroke-linejoin="round" stroke-dasharray="null" stroke-width="0" stroke="#000000" fill="#000000">A</text>
   </g>
   <g id="imagebot_116" transform="translate(141.722 102.81)">
    <path id="imagebot_117" transform="matrix(5.3413 0.0142063 -0.00557966 2.09785 91.4591 -102.733)" d="M17.2637,12.41872L17.2637,14.65882C17.2637,14.82749 17.37374,14.96415 17.50968,14.96415C17.64526,14.96415 17.7553,14.82749 17.7553,14.65882L17.7553,12.41872C17.7553,12.24969 17.64526,12.11304 17.50968,12.11304C17.37374,12.11304 17.2637,12.24969 17.2637,12.41872z"/>
    <text id="imagebot_118" transform="matrix(0.621013 0 0 0.621013 112.481 -147.745)" xml:space="preserve" text-anchor="middle" font-family="serif" font-size="24" y="110" x="117" fill-opacity="null" stroke-opacity="null" stroke-linecap="round" stroke-linejoin="round" stroke-dasharray="null" stroke-width="0" stroke="#000000" fill="#000000">T</text>
    <text id="imagebot_119" transform="matrix(0.641698 0 0 0.641698 108.569 -147.199)" xml:space="preserve" text-anchor="middle" font-family="serif" font-size="24" y="137" x="118" fill-opacity="null" stroke-opacity="null" stroke-linecap="round" stroke-linejoin="round" stroke-dasharray="null" stroke-width="0" stroke="#000000" fill="#000000">A</text>
   </g>
   <g id="imagebot_120" transform="translate(2.4576 -2.8672) matrix(1.23035 0 0 1.23035 -86.6343 191.301)">
    <path id="imagebot_121" transform="matrix(5.3413 0.0142063 -0.00557966 2.09785 91.4591 -102.733)" d="M17.2637,12.41872L17.2637,14.65882C17.2637,14.82749 17.37374,14.96415 17.50968,14.96415C17.64526,14.96415 17.7553,14.82749 17.7553,14.65882L17.7553,12.41872C17.7553,12.24969 17.64526,12.11304 17.50968,12.11304C17.37374,12.11304 17.2637,12.24969 17.2637,12.41872z"/>
    <text id="imagebot_122" transform="matrix(0.621013 0 0 0.621013 112.481 -147.745)" xml:space="preserve" text-anchor="middle" font-family="serif" font-size="24" y="110" x="117" fill-opacity="null" stroke-opacity="null" stroke-linecap="round" stroke-linejoin="round" stroke-dasharray="null" stroke-width="0" stroke="#000000" fill="#000000">T</text>
    <text id="imagebot_123" transform="matrix(0.641698 0 0 0.641698 108.569 -147.199)" xml:space="preserve" text-anchor="middle" font-family="serif" font-size="24" y="137" x="118" fill-opacity="null" stroke-opacity="null" stroke-linecap="round" stroke-linejoin="round" stroke-dasharray="null" stroke-width="0" stroke="#000000" fill="#000000">A</text>
   </g>
   <g id="imagebot_124" transform="translate(1166.35 79.489) matrix(1.26521 0 0 1.26521 -269.239 121.232)">
    <path id="imagebot_125" transform="matrix(5.3413 0.0142063 -0.00557966 2.09785 112.758 -106.009)" d="M17.2637,12.41872L17.2637,14.65882C17.2637,14.82749 17.37374,14.96415 17.50968,14.96415C17.64526,14.96415 17.7553,14.82749 17.7553,14.65882L17.7553,12.41872C17.7553,12.24969 17.64526,12.11304 17.50968,12.11304C17.37374,12.11304 17.2637,12.24969 17.2637,12.41872z"/>
    <text id="imagebot_126" transform="matrix(0.621013 0 0 0.621013 133.78 -151.022)" xml:space="preserve" text-anchor="middle" font-family="serif" font-size="24" y="110" x="117" fill-opacity="null" stroke-opacity="null" stroke-linecap="round" stroke-linejoin="round" stroke-dasharray="null" stroke-width="0" stroke="#000000" fill="#000000">G</text>
    <text id="imagebot_127" transform="matrix(0.641698 0 0 0.641698 129.869 -150.476)" xml:space="preserve" text-anchor="middle" font-family="serif" font-size="24" y="137" x="118" fill-opacity="null" stroke-opacity="null" stroke-linecap="round" stroke-linejoin="round" stroke-dasharray="null" stroke-width="0" stroke="#000000" fill="#000000">C</text>
   </g>
   <g id="imagebot_128" transform="translate(-0.8192 -1.2288) matrix(1 0 0 1 685.261 196.608)">
    <path id="imagebot_129" transform="matrix(5.3413 0.0142063 -0.00557966 2.09785 112.758 -106.009)" d="M17.2637,12.41872L17.2637,14.65882C17.2637,14.82749 17.37374,14.96415 17.50968,14.96415C17.64526,14.96415 17.7553,14.82749 17.7553,14.65882L17.7553,12.41872C17.7553,12.24969 17.64526,12.11304 17.50968,12.11304C17.37374,12.11304 17.2637,12.24969 17.2637,12.41872z"/>
    <text id="imagebot_130" transform="matrix(0.621013 0 0 0.621013 133.78 -151.022)" xml:space="preserve" text-anchor="middle" font-family="serif" font-size="24" y="110" x="117" fill-opacity="null" stroke-opacity="null" stroke-linecap="round" stroke-linejoin="round" stroke-dasharray="null" stroke-width="0" stroke="#000000" fill="#000000">G</text>
    <text id="imagebot_131" transform="matrix(0.641698 0 0 0.641698 129.869 -150.476)" xml:space="preserve" text-anchor="middle" font-family="serif" font-size="24" y="137" x="118" fill-opacity="null" stroke-opacity="null" stroke-linecap="round" stroke-linejoin="round" stroke-dasharray="null" stroke-width="0" stroke="#000000" fill="#000000">C</text>
   </g>
   <g id="imagebot_132" transform="translate(958.273 79.7174) matrix(1.33151 0 0 1.33151 -283.348 77.6509)">
    <path id="imagebot_133" transform="matrix(5.3413 0.0142063 -0.00557966 2.09785 112.758 -106.009)" d="M17.2637,12.41872L17.2637,14.65882C17.2637,14.82749 17.37374,14.96415 17.50968,14.96415C17.64526,14.96415 17.7553,14.82749 17.7553,14.65882L17.7553,12.41872C17.7553,12.24969 17.64526,12.11304 17.50968,12.11304C17.37374,12.11304 17.2637,12.24969 17.2637,12.41872z"/>
    <text id="imagebot_134" transform="matrix(0.621013 0 0 0.621013 133.78 -151.022)" xml:space="preserve" text-anchor="middle" font-family="serif" font-size="24" y="110" x="117" fill-opacity="null" stroke-opacity="null" stroke-linecap="round" stroke-linejoin="round" stroke-dasharray="null" stroke-width="0" stroke="#000000" fill="#000000">G</text>
    <text id="imagebot_135" transform="matrix(0.641698 0 0 0.641698 129.869 -150.476)" xml:space="preserve" text-anchor="middle" font-family="serif" font-size="24" y="137" x="118" fill-opacity="null" stroke-opacity="null" stroke-linecap="round" stroke-linejoin="round" stroke-dasharray="null" stroke-width="0" stroke="#000000" fill="#000000">C</text>
   </g>
   <g id="imagebot_136" transform="translate(712.036 13.953) matrix(1.26521 0 0 1.26521 -253.606 121.232)">
    <path id="imagebot_137" transform="matrix(5.3413 0.0142063 -0.00557966 2.09785 112.758 -106.009)" d="M17.2637,12.41872L17.2637,14.65882C17.2637,14.82749 17.37374,14.96415 17.50968,14.96415C17.64526,14.96415 17.7553,14.82749 17.7553,14.65882L17.7553,12.41872C17.7553,12.24969 17.64526,12.11304 17.50968,12.11304C17.37374,12.11304 17.2637,12.24969 17.2637,12.41872z"/>
    <text id="imagebot_138" transform="matrix(0.621013 0 0 0.621013 133.78 -151.022)" xml:space="preserve" text-anchor="middle" font-family="serif" font-size="24" y="110" x="117" fill-opacity="null" stroke-opacity="null" stroke-linecap="round" stroke-linejoin="round" stroke-dasharray="null" stroke-width="0" stroke="#000000" fill="#000000">G</text>
    <text id="imagebot_139" transform="matrix(0.641698 0 0 0.641698 129.869 -150.476)" xml:space="preserve" text-anchor="middle" font-family="serif" font-size="24" y="137" x="118" fill-opacity="null" stroke-opacity="null" stroke-linecap="round" stroke-linejoin="round" stroke-dasharray="null" stroke-width="0" stroke="#000000" fill="#000000">C</text>
   </g>
   <g id="imagebot_144" transform="translate(1187.16 114.956) matrix(0.607153 0 0 0.607153 -134.128 56.6362)">
    <path id="imagebot_145" transform="matrix(5.3413 0.0142063 -0.00557966 2.09785 133.648 -103.142)" d="M17.2637,12.41872L17.2637,14.65882C17.2637,14.82749 17.37374,14.96415 17.50968,14.96415C17.64526,14.96415 17.7553,14.82749 17.7553,14.65882L17.7553,12.41872C17.7553,12.24969 17.64526,12.11304 17.50968,12.11304C17.37374,12.11304 17.2637,12.24969 17.2637,12.41872z"/>
    <text id="imagebot_146" transform="matrix(0.621013 0 0 0.621013 154.67 -148.154)" xml:space="preserve" text-anchor="middle" font-family="serif" font-size="24" y="110" x="117" fill-opacity="null" stroke-opacity="null" stroke-linecap="round" stroke-linejoin="round" stroke-dasharray="null" stroke-width="0" stroke="#000000" fill="#000000">C</text>
    <text id="imagebot_147" transform="matrix(0.641698 0 0 0.641698 150.758 -147.608)" xml:space="preserve" text-anchor="middle" font-family="serif" font-size="24" y="137" x="118" fill-opacity="null" stroke-opacity="null" stroke-linecap="round" stroke-linejoin="round" stroke-dasharray="null" stroke-width="0" stroke="#000000" fill="#000000">G</text>
   </g>
   <g id="imagebot_148" transform="translate(-1.6384 -5.3248) matrix(1.16453 0 0 1.16453 839.787 126.295)">
    <path id="imagebot_149" transform="matrix(5.3413 0.0142063 -0.00557966 2.09785 133.648 -103.142)" d="M17.2637,12.41872L17.2637,14.65882C17.2637,14.82749 17.37374,14.96415 17.50968,14.96415C17.64526,14.96415 17.7553,14.82749 17.7553,14.65882L17.7553,12.41872C17.7553,12.24969 17.64526,12.11304 17.50968,12.11304C17.37374,12.11304 17.2637,12.24969 17.2637,12.41872z"/>
    <text id="imagebot_150" transform="matrix(0.621013 0 0 0.621013 154.67 -148.154)" xml:space="preserve" text-anchor="middle" font-family="serif" font-size="24" y="110" x="117" fill-opacity="null" stroke-opacity="null" stroke-linecap="round" stroke-linejoin="round" stroke-dasharray="null" stroke-width="0" stroke="#000000" fill="#000000">C</text>
    <text id="imagebot_151" transform="matrix(0.641698 0 0 0.641698 150.758 -147.608)" xml:space="preserve" text-anchor="middle" font-family="serif" font-size="24" y="137" x="118" fill-opacity="null" stroke-opacity="null" stroke-linecap="round" stroke-linejoin="round" stroke-dasharray="null" stroke-width="0" stroke="#000000" fill="#000000">G</text>
   </g>
   <g id="imagebot_152" transform="translate(0.4096 -3.2768) matrix(0.736748 0 0 0.736748 818.374 75.1051)">
    <path id="imagebot_153" transform="matrix(5.3413 0.0142063 -0.00557966 2.09785 133.648 -103.142)" d="M17.2637,12.41872L17.2637,14.65882C17.2637,14.82749 17.37374,14.96415 17.50968,14.96415C17.64526,14.96415 17.7553,14.82749 17.7553,14.65882L17.7553,12.41872C17.7553,12.24969 17.64526,12.11304 17.50968,12.11304C17.37374,12.11304 17.2637,12.24969 17.2637,12.41872z"/>
    <text id="imagebot_154" transform="matrix(0.621013 0 0 0.621013 154.67 -148.154)" xml:space="preserve" text-anchor="middle" font-family="serif" font-size="24" y="110" x="117" fill-opacity="null" stroke-opacity="null" stroke-linecap="round" stroke-linejoin="round" stroke-dasharray="null" stroke-width="0" stroke="#000000" fill="#000000">C</text>
    <text id="imagebot_155" transform="matrix(0.641698 0 0 0.641698 150.758 -147.608)" xml:space="preserve" text-anchor="middle" font-family="serif" font-size="24" y="137" x="118" fill-opacity="null" stroke-opacity="null" stroke-linecap="round" stroke-linejoin="round" stroke-dasharray="null" stroke-width="0" stroke="#000000" fill="#000000">G</text>
   </g>
   <g id="imagebot_156" transform="translate(0 -3.6864) matrix(1.36197 0 0 1.36197 617.993 183.56)">
    <path id="imagebot_157" transform="matrix(5.3413 0.0142063 -0.00557966 2.09785 133.648 -103.142)" d="M17.2637,12.41872L17.2637,14.65882C17.2637,14.82749 17.37374,14.96415 17.50968,14.96415C17.64526,14.96415 17.7553,14.82749 17.7553,14.65882L17.7553,12.41872C17.7553,12.24969 17.64526,12.11304 17.50968,12.11304C17.37374,12.11304 17.2637,12.24969 17.2637,12.41872z"/>
    <text id="imagebot_158" transform="matrix(0.621013 0 0 0.621013 154.67 -148.154)" xml:space="preserve" text-anchor="middle" font-family="serif" font-size="24" y="110" x="117" fill-opacity="null" stroke-opacity="null" stroke-linecap="round" stroke-linejoin="round" stroke-dasharray="null" stroke-width="0" stroke="#000000" fill="#000000">C</text>
    <text id="imagebot_159" transform="matrix(0.641698 0 0 0.641698 150.758 -147.608)" xml:space="preserve" text-anchor="middle" font-family="serif" font-size="24" y="137" x="118" fill-opacity="null" stroke-opacity="null" stroke-linecap="round" stroke-linejoin="round" stroke-dasharray="null" stroke-width="0" stroke="#000000" fill="#000000">G</text>
   </g>
   <g id="imagebot_160" transform="translate(-0.8192 -6.9632) matrix(0.638025 0 0 0.638025 651.767 176.537)">
    <path id="imagebot_161" transform="matrix(5.3413 0.0142063 -0.00557966 2.09785 133.648 -103.142)" d="M17.2637,12.41872L17.2637,14.65882C17.2637,14.82749 17.37374,14.96415 17.50968,14.96415C17.64526,14.96415 17.7553,14.82749 17.7553,14.65882L17.7553,12.41872C17.7553,12.24969 17.64526,12.11304 17.50968,12.11304C17.37374,12.11304 17.2637,12.24969 17.2637,12.41872z"/>
    <text id="imagebot_162" transform="matrix(0.621013 0 0 0.621013 154.67 -148.154)" xml:space="preserve" text-anchor="middle" font-family="serif" font-size="24" y="110" x="117" fill-opacity="null" stroke-opacity="null" stroke-linecap="round" stroke-linejoin="round" stroke-dasharray="null" stroke-width="0" stroke="#000000" fill="#000000">C</text>
    <text id="imagebot_163" transform="matrix(0.641698 0 0 0.641698 150.758 -147.608)" xml:space="preserve" text-anchor="middle" font-family="serif" font-size="24" y="137" x="118" fill-opacity="null" stroke-opacity="null" stroke-linecap="round" stroke-linejoin="round" stroke-dasharray="null" stroke-width="0" stroke="#000000" fill="#000000">G</text>
   </g>
   <g id="imagebot_164" transform="translate(135.578 74.9568) translate(337.101 21.2992)">
    <path id="imagebot_165" transform="matrix(5.3413 0.0142063 -0.00557966 2.09785 133.648 -103.142)" d="M17.2637,12.41872L17.2637,14.65882C17.2637,14.82749 17.37374,14.96415 17.50968,14.96415C17.64526,14.96415 17.7553,14.82749 17.7553,14.65882L17.7553,12.41872C17.7553,12.24969 17.64526,12.11304 17.50968,12.11304C17.37374,12.11304 17.2637,12.24969 17.2637,12.41872z"/>
    <text id="imagebot_166" transform="matrix(0.621013 0 0 0.621013 154.67 -148.154)" xml:space="preserve" text-anchor="middle" font-family="serif" font-size="24" y="110" x="117" fill-opacity="null" stroke-opacity="null" stroke-linecap="round" stroke-linejoin="round" stroke-dasharray="null" stroke-width="0" stroke="#000000" fill="#000000">C</text>
    <text id="imagebot_167" transform="matrix(0.641698 0 0 0.641698 150.758 -147.608)" xml:space="preserve" text-anchor="middle" font-family="serif" font-size="24" y="137" x="118" fill-opacity="null" stroke-opacity="null" stroke-linecap="round" stroke-linejoin="round" stroke-dasharray="null" stroke-width="0" stroke="#000000" fill="#000000">G</text>
   </g>
   <g id="imagebot_168" transform="translate(-58.1632 171.213) translate(337.101 21.2992)">
    <path id="imagebot_169" transform="matrix(5.3413 0.0142063 -0.00557966 2.09785 133.648 -103.142)" d="M17.2637,12.41872L17.2637,14.65882C17.2637,14.82749 17.37374,14.96415 17.50968,14.96415C17.64526,14.96415 17.7553,14.82749 17.7553,14.65882L17.7553,12.41872C17.7553,12.24969 17.64526,12.11304 17.50968,12.11304C17.37374,12.11304 17.2637,12.24969 17.2637,12.41872z"/>
    <text id="imagebot_170" transform="matrix(0.621013 0 0 0.621013 154.67 -148.154)" xml:space="preserve" text-anchor="middle" font-family="serif" font-size="24" y="110" x="117" fill-opacity="null" stroke-opacity="null" stroke-linecap="round" stroke-linejoin="round" stroke-dasharray="null" stroke-width="0" stroke="#000000" fill="#000000">C</text>
    <text id="imagebot_171" transform="matrix(0.641698 0 0 0.641698 150.758 -147.608)" xml:space="preserve" text-anchor="middle" font-family="serif" font-size="24" y="137" x="118" fill-opacity="null" stroke-opacity="null" stroke-linecap="round" stroke-linejoin="round" stroke-dasharray="null" stroke-width="0" stroke="#000000" fill="#000000">G</text>
   </g>
   <g id="imagebot_172" transform="translate(-1.2288 -2.8672) matrix(1.36197 0 0 1.36197 39.6382 159.803)">
    <path id="imagebot_173" transform="matrix(5.3413 0.0142063 -0.00557966 2.09785 133.648 -103.142)" d="M17.2637,12.41872L17.2637,14.65882C17.2637,14.82749 17.37374,14.96415 17.50968,14.96415C17.64526,14.96415 17.7553,14.82749 17.7553,14.65882L17.7553,12.41872C17.7553,12.24969 17.64526,12.11304 17.50968,12.11304C17.37374,12.11304 17.2637,12.24969 17.2637,12.41872z"/>
    <text id="imagebot_174" transform="matrix(0.621013 0 0 0.621013 154.67 -148.154)" xml:space="preserve" text-anchor="middle" font-family="serif" font-size="24" y="110" x="117" fill-opacity="null" stroke-opacity="null" stroke-linecap="round" stroke-linejoin="round" stroke-dasharray="null" stroke-width="0" stroke="#000000" fill="#000000">C</text>
    <text id="imagebot_175" transform="matrix(0.641698 0 0 0.641698 150.758 -147.608)" xml:space="preserve" text-anchor="middle" font-family="serif" font-size="24" y="137" x="118" fill-opacity="null" stroke-opacity="null" stroke-linecap="round" stroke-linejoin="round" stroke-dasharray="null" stroke-width="0" stroke="#000000" fill="#000000">G</text>
   </g>
   <g id="imagebot_176" transform="translate(1.6384 -0.4096) matrix(1.39488 0 0 1.39488 -153.999 177.198)">
    <path id="imagebot_177" transform="matrix(5.3413 0.0142063 -0.00557966 2.09785 133.648 -103.142)" d="M17.2637,12.41872L17.2637,14.65882C17.2637,14.82749 17.37374,14.96415 17.50968,14.96415C17.64526,14.96415 17.7553,14.82749 17.7553,14.65882L17.7553,12.41872C17.7553,12.24969 17.64526,12.11304 17.50968,12.11304C17.37374,12.11304 17.2637,12.24969 17.2637,12.41872z"/>
    <text id="imagebot_178" transform="matrix(0.621013 0 0 0.621013 154.67 -148.154)" xml:space="preserve" text-anchor="middle" font-family="serif" font-size="24" y="110" x="117" fill-opacity="null" stroke-opacity="null" stroke-linecap="round" stroke-linejoin="round" stroke-dasharray="null" stroke-width="0" stroke="#000000" fill="#000000">C</text>
    <text id="imagebot_179" transform="matrix(0.641698 0 0 0.641698 150.758 -147.608)" xml:space="preserve" text-anchor="middle" font-family="serif" font-size="24" y="137" x="118" fill-opacity="null" stroke-opacity="null" stroke-linecap="round" stroke-linejoin="round" stroke-dasharray="null" stroke-width="0" stroke="#000000" fill="#000000">G</text>
   </g>
   <g id="imagebot_180" transform="translate(2.8672 -3.2768) matrix(0.912623 0 0 0.912623 -88.4221 184.8)">
    <path id="imagebot_181" transform="matrix(5.3413 0.0142063 -0.00557966 2.09785 133.648 -103.142)" d="M17.2637,12.41872L17.2637,14.65882C17.2637,14.82749 17.37374,14.96415 17.50968,14.96415C17.64526,14.96415 17.7553,14.82749 17.7553,14.65882L17.7553,12.41872C17.7553,12.24969 17.64526,12.11304 17.50968,12.11304C17.37374,12.11304 17.2637,12.24969 17.2637,12.41872z"/>
    <text id="imagebot_182" transform="matrix(0.621013 0 0 0.621013 154.67 -148.154)" xml:space="preserve" text-anchor="middle" font-family="serif" font-size="24" y="110" x="117" fill-opacity="null" stroke-opacity="null" stroke-linecap="round" stroke-linejoin="round" stroke-dasharray="null" stroke-width="0" stroke="#000000" fill="#000000">C</text>
    <text id="imagebot_183" transform="matrix(0.641698 0 0 0.641698 150.758 -147.608)" xml:space="preserve" text-anchor="middle" font-family="serif" font-size="24" y="137" x="118" fill-opacity="null" stroke-opacity="null" stroke-linecap="round" stroke-linejoin="round" stroke-dasharray="null" stroke-width="0" stroke="#000000" fill="#000000">G</text>
   </g>
   <g id="imagebot_184" transform="translate(540.004 46.721) matrix(1.43097 0 0 1.43097 -286.832 137.115)">
    <path id="imagebot_185" transform="matrix(5.3413 0.0142063 -0.00557966 2.09785 112.758 -106.009)" d="M17.2637,12.41872L17.2637,14.65882C17.2637,14.82749 17.37374,14.96415 17.50968,14.96415C17.64526,14.96415 17.7553,14.82749 17.7553,14.65882L17.7553,12.41872C17.7553,12.24969 17.64526,12.11304 17.50968,12.11304C17.37374,12.11304 17.2637,12.24969 17.2637,12.41872z"/>
    <text id="imagebot_186" transform="matrix(0.621013 0 0 0.621013 133.78 -151.022)" xml:space="preserve" text-anchor="middle" font-family="serif" font-size="24" y="110" x="117" fill-opacity="null" stroke-opacity="null" stroke-linecap="round" stroke-linejoin="round" stroke-dasharray="null" stroke-width="0" stroke="#000000" fill="#000000">G</text>
    <text id="imagebot_187" transform="matrix(0.641698 0 0 0.641698 129.869 -150.476)" xml:space="preserve" text-anchor="middle" font-family="serif" font-size="24" y="137" x="118" fill-opacity="null" stroke-opacity="null" stroke-linecap="round" stroke-linejoin="round" stroke-dasharray="null" stroke-width="0" stroke="#000000" fill="#000000">C</text>
   </g>
   <g id="imagebot_188" transform="translate(0.4096 -0.4096) matrix(1.19891 0 0 1.19891 278.389 192.32)">
    <path id="imagebot_189" transform="matrix(5.3413 0.0142063 -0.00557966 2.09785 112.758 -106.009)" d="M17.2637,12.41872L17.2637,14.65882C17.2637,14.82749 17.37374,14.96415 17.50968,14.96415C17.64526,14.96415 17.7553,14.82749 17.7553,14.65882L17.7553,12.41872C17.7553,12.24969 17.64526,12.11304 17.50968,12.11304C17.37374,12.11304 17.2637,12.24969 17.2637,12.41872z"/>
    <text id="imagebot_190" transform="matrix(0.621013 0 0 0.621013 133.78 -151.022)" xml:space="preserve" text-anchor="middle" font-family="serif" font-size="24" y="110" x="117" fill-opacity="null" stroke-opacity="null" stroke-linecap="round" stroke-linejoin="round" stroke-dasharray="null" stroke-width="0" stroke="#000000" fill="#000000">G</text>
    <text id="imagebot_191" transform="matrix(0.641698 0 0 0.641698 129.869 -150.476)" xml:space="preserve" text-anchor="middle" font-family="serif" font-size="24" y="137" x="118" fill-opacity="null" stroke-opacity="null" stroke-linecap="round" stroke-linejoin="round" stroke-dasharray="null" stroke-width="0" stroke="#000000" fill="#000000">C</text>
   </g>
   <g id="imagebot_192" transform="translate(1.6384 -5.7344) matrix(0.767939 0 0 0.767939 148.916 83.5419)">
    <path id="imagebot_193" transform="matrix(5.3413 0.0142063 -0.00557966 2.09785 112.758 -106.009)" d="M17.2637,12.41872L17.2637,14.65882C17.2637,14.82749 17.37374,14.96415 17.50968,14.96415C17.64526,14.96415 17.7553,14.82749 17.7553,14.65882L17.7553,12.41872C17.7553,12.24969 17.64526,12.11304 17.50968,12.11304C17.37374,12.11304 17.2637,12.24969 17.2637,12.41872z"/>
    <text id="imagebot_194" transform="matrix(0.621013 0 0 0.621013 133.78 -151.022)" xml:space="preserve" text-anchor="middle" font-family="serif" font-size="24" y="110" x="117" fill-opacity="null" stroke-opacity="null" stroke-linecap="round" stroke-linejoin="round" stroke-dasharray="null" stroke-width="0" stroke="#000000" fill="#000000">G</text>
    <text id="imagebot_195" transform="matrix(0.641698 0 0 0.641698 129.869 -150.476)" xml:space="preserve" text-anchor="middle" font-family="serif" font-size="24" y="137" x="118" fill-opacity="null" stroke-opacity="null" stroke-linecap="round" stroke-linejoin="round" stroke-dasharray="null" stroke-width="0" stroke="#000000" fill="#000000">C</text>
   </g>
  </g>
 </g>
 <metadata>image/svg+xmlOpenclipartDNA2010-05-03T13:09:46Simple DNA for illustrationshttps://openclipart.org/detail/58543/dna-by-kumar35885kumar35885DNADeoxyribonucleic aciddouble helixgenegenetichelix</metadata>
</svg>