<?xml version="1.0" encoding="UTF-8" standalone="no"?>
<!DOCTYPE svg PUBLIC "-//W3C//DTD SVG 1.1//EN" "http://www.w3.org/Graphics/SVG/1.1/DTD/svg11.dtd">
<svg width="100%" height="100%" viewBox="0 0 461 486" version="1.1" xmlns="http://www.w3.org/2000/svg" xmlns:xlink="http://www.w3.org/1999/xlink" xml:space="preserve" xmlns:serif="http://www.serif.com/" style="fill-rule:evenodd;clip-rule:evenodd;stroke-linecap:round;stroke-linejoin:round;stroke-miterlimit:1.5;">
    <g transform="matrix(1,0,0,1,-1127.67,-2517.45)">
        <g transform="matrix(0.390009,0,0,0.390009,1028.06,2427.86)">
            <g transform="matrix(1,0,0,1,4.42257,7.96062)">
                <path d="M288.956,1134.12C291.073,1123.91 296.381,1098.96 299.931,1085.25C302.852,1073.96 309.751,1060.42 310.257,1051.84C310.639,1045.34 297.813,1037.7 302.964,1033.73C308.319,1029.59 333.044,1034.06 342.386,1027.04C351.727,1020.02 357.795,1003.08 359.015,991.61C360.236,980.145 353.92,965.423 349.708,958.247C346.557,952.878 335.861,954.408 333.746,948.554C329.255,936.123 322.034,896.322 322.762,883.659C323.124,877.359 331.876,873.539 338.113,872.58C348.344,871.007 371.777,871.892 384.146,874.222C394.224,876.121 407.83,877.347 412.328,886.562C418.707,899.632 418.174,931.998 422.424,952.64C426.443,972.161 430.877,995.264 437.827,1010.42C443.706,1023.23 452.681,1038.02 464.124,1043.55C475.566,1049.07 495.069,1049.28 506.483,1043.55C517.896,1037.81 522.94,1016.74 532.606,1009.12C541.458,1002.14 555.347,1002.63 564.479,997.806C573,993.309 581.506,974.902 587.4,980.197C593.295,985.492 596.807,1012.88 599.845,1029.58C603.868,1051.69 617.457,1097.39 611.543,1112.91C605.825,1127.92 577.196,1120.69 564.362,1122.7C554.513,1124.24 544.499,1124.48 534.543,1124.97C519.651,1125.71 494.59,1123.82 475.013,1127.14C449.146,1131.52 406.705,1147.41 379.346,1151.26C356.735,1154.44 326.207,1151.02 310.855,1150.24C302.896,1149.83 290.881,1149.25 287.232,1146.56C283.861,1144.08 288.107,1138.22 288.956,1134.12Z" style="fill:rgb(201,186,154);"/>
            </g>
            <g transform="matrix(1,0,0,1,0,6.0648)">
                <path d="M418.243,884.447C411.587,888.13 414.185,901.273 415.008,909.729C416.626,926.358 417.369,961.347 427.953,984.218C438.999,1008.09 452.308,1051.82 481.284,1052.95C513.324,1054.19 587.739,1013.14 620.194,991.701C644.534,975.621 707.547,1007.23 732.956,995.147C758.364,983.062 769.359,951.277 772.647,919.189C775.967,886.782 731.649,762.954 695.936,729.857C662.226,698.618 591.609,701.157 558.368,720.611C525.127,740.065 490.573,792.407 473.335,820.243C463.085,836.794 467.982,881.317 454.941,887.628C443.888,892.977 424.898,880.763 418.243,884.447Z" style="fill:rgb(229,219,195);"/>
            </g>
            <g transform="matrix(0.983953,0.178428,-0.178428,0.983953,231.687,-117.638)">
                <path d="M302.64,1251.06C294.258,1255.53 306.435,1269.69 307.761,1279.1C309.966,1294.73 314.532,1325.29 315.868,1344.87C317.041,1362.06 306.044,1383.86 315.777,1396.57C325.509,1409.27 353.123,1421.11 374.263,1421.09C402.305,1421.07 448.758,1409.18 484.029,1396.44C523.984,1382.02 580.205,1346.2 613.992,1334.53C637.056,1326.57 665.003,1337.53 686.746,1326.46C709.383,1314.93 735.936,1289.77 749.816,1265.36C763.697,1240.94 763.588,1208.51 770.029,1179.98C776.565,1151.03 781.549,1116.16 789.029,1091.68C795.268,1071.26 807.558,1053.14 814.91,1033.09C822.342,1012.83 829.997,988.737 833.624,970.097C836.739,954.085 842.609,932.78 836.67,921.256C830.731,909.732 811.62,896.235 797.99,900.952C784.36,905.669 762.788,937.83 754.89,949.559C750.759,955.694 755.951,966.222 750.6,971.328C742.98,978.6 724.769,993.885 709.169,993.192C691.215,992.394 659.516,969.611 642.875,966.54C631.55,964.45 618.753,968.157 609.321,974.764C598.699,982.203 584.089,996.45 579.146,1011.17C574.203,1025.9 577.02,1046 579.662,1063.1C582.805,1083.46 598.269,1114.05 598.003,1133.3C597.775,1149.8 591.799,1169.46 578.067,1178.6C560.355,1190.4 520.206,1196.17 491.729,1204.08C463.68,1211.87 435.458,1219.04 407.206,1226.06C375.691,1233.89 319.214,1242.22 302.64,1251.06Z" style="fill:rgb(194,178,144);"/>
            </g>
            <path d="M416.816,896.892C410.264,884.494 407.296,875.389 397.57,890.904C387.844,906.419 341.622,884.901 326.726,885.505C319.862,885.783 314.052,898.117 308.194,894.526C301,890.116 286.458,869.041 283.562,859.044C281.191,850.862 292.106,836.278 290.815,834.541C289.524,832.804 281.613,851.067 275.814,848.623C270.015,846.179 251.826,830.729 256.021,819.878C264.216,798.687 314.307,743.9 324.98,721.473C330.207,710.491 321.644,695.863 320.058,685.319C318.695,676.255 313.728,667.207 315.465,658.208C321.241,628.288 332.041,553.106 354.716,505.798C378.698,455.761 412.703,396.297 459.358,357.988C513.393,313.619 598.028,258.815 678.927,239.583C760.547,220.179 872.865,234.173 949.078,241.565C1012.73,247.74 1078.88,255.571 1136.2,283.938C1199.46,315.244 1279.31,372.379 1328.61,429.401C1377.05,485.429 1416.84,560.208 1432.01,626.073C1446.89,690.681 1425.92,780.056 1419.63,824.586C1416.22,848.744 1407.56,875.536 1394.28,893.25C1381.08,910.872 1357.19,917.135 1339.98,930.874C1318.34,948.152 1294.61,982.507 1264.42,996.92C1230.07,1013.32 1175.83,1045.09 1133.87,1029.29C1063.05,1002.63 936.552,881.353 839.546,836.965C749.497,795.761 609.073,767.207 551.827,762.962C527.252,761.14 503.859,797.617 496.065,811.496C490.207,821.927 507.992,835.818 505.059,846.24C502.127,856.662 488.901,866.576 478.469,874.027C467.266,882.029 448.821,894.833 437.844,894.251C426.868,893.668 422.21,907.098 416.816,896.892Z" style="fill:rgb(213,200,171);"/>
            <path d="M860.21,903.757C863.321,918.948 868.031,937.199 877.058,947.118C886.085,957.037 903.446,955.25 914.371,963.27C925.447,971.401 939.871,981.781 943.511,995.903C949.545,1019.32 943.958,1095.54 950.579,1103.75C957.199,1111.97 975.705,1064.64 983.235,1045.18C990.395,1026.68 993.021,1004.05 995.76,987.005C998.101,972.445 1003.32,957.227 999.673,942.939C995.378,926.122 982.408,903.5 969.991,886.104C956.475,867.169 937.193,834.419 918.58,829.331C899.967,824.244 868.042,843.173 858.314,855.578C848.585,867.982 857.086,888.5 860.21,903.757Z" style="fill:rgb(213,200,171);"/>
            <path d="M827.294,993.198C837.055,1014.06 875.157,998.322 893.853,1011.78C918.053,1029.19 952.216,1089.84 972.494,1097.69C990.505,1104.66 997.754,1066.46 1015.52,1058.88C1036.5,1049.92 1077.28,1056.25 1098.37,1043.97C1119.46,1031.68 1158.79,1002.96 1142.06,985.177C1123.5,965.456 1038.26,942.358 986.995,925.638C936.964,909.319 861.095,873.592 834.478,884.852C807.862,896.112 817.399,972.044 827.294,993.198Z" style="fill:rgb(213,200,171);"/>
            <g transform="matrix(1.05316,0,0,1,-70.4092,0.789679)">
                <path d="M895.747,875.083C877.114,882.287 897.524,980.075 898.887,1000.01C900.432,1022.62 912.608,1050.26 914.109,1076.08C915.801,1105.17 908.915,1141.69 909.038,1174.56C909.184,1213.59 909.986,1265.28 914.986,1310.29C920.168,1356.94 928.707,1427.43 940.132,1454.47C946.23,1468.9 973.973,1472.37 983.536,1472.49C990.951,1472.58 997.505,1466.62 997.505,1455.17C997.505,1443.73 980.639,1387.66 977.43,1353.15C973.883,1315 973.613,1266.5 976.22,1226.28C978.713,1187.79 984.038,1146.62 993.068,1111.81C1001.56,1079.07 1021.52,1045.59 1030.39,1017.46C1038.03,993.254 1046.56,852.366 1025.64,839.518C1004.71,826.671 920.318,865.584 895.747,875.083Z" style="fill:rgb(241,238,212);stroke:rgb(143,89,70);stroke-width:2.5px;"/>
            </g>
            <g transform="matrix(1,0,0,1,-1283.71,50.0279)">
                <path d="M1667.06,704.484C1666.28,694.835 1657.01,662.352 1662.57,652.129C1668.14,641.906 1688.11,639.112 1700.44,643.147C1716.85,648.517 1746.04,666.347 1761.02,684.348C1776,702.349 1787.93,727.949 1790.34,751.151C1792.74,774.354 1784.4,805.252 1775.44,823.563C1767.54,839.718 1750.65,857.522 1736.62,861.021C1722.58,864.52 1704.19,851.789 1691.22,844.557C1678.95,837.715 1663.88,830.728 1658.78,817.632C1653.44,803.903 1657.75,780.119 1659.17,762.183C1660.56,744.641 1665.99,719.638 1667.3,710.022C1667.55,708.191 1667.22,706.325 1667.06,704.484Z" style="fill:rgb(171,154,119);"/>
            </g>
            <path d="M851.761,881.448C837.785,899.173 839.661,937.266 846.898,952.369C851.621,962.228 885.257,967.48 895.181,972.065C908.608,978.269 943.295,977.476 960.506,980.247C973.298,982.307 1002.54,985.216 1010.82,977.743C1019.1,970.271 1011.42,953.554 1010.18,935.411C1008.13,905.352 1012.55,817.333 986.145,808.339C959.742,799.345 869.462,859.001 851.761,881.448Z" style="fill:rgb(194,190,151);"/>
            <g transform="matrix(1,0,0,1,9.62732,11.5403)">
                <g id="path2173" transform="matrix(1.07499,0.0657816,-0.0689171,1.12623,371.51,187.997)">
                    <path d="M550.947,570.22C550.947,576.212 551.945,582.204 557.937,588.195C559.934,622.149 572.917,633.134 590.892,633.134C670.783,684.064 731.699,687.06 777.637,657.101C796.611,646.116 826.57,635.131 828.567,624.146C850.537,613.161 863.519,602.176 875.503,591.191C894.477,575.213 894.477,547.251 886.488,512.299C696.747,506.307 600.878,531.273 550.947,570.22Z" style="fill:rgb(202,167,163);stroke:rgb(54,46,36);stroke-width:2px;stroke-linecap:butt;stroke-linejoin:miter;stroke-miterlimit:4;"/>
                </g>
                <g id="path2179" transform="matrix(1.07499,0.0657816,-0.0689171,1.12623,371.51,187.997)">
                    <path d="M436.104,55.923C405.146,53.926 370.194,59.918 340.235,76.895C325.255,77.893 309.277,85.883 296.295,91.874C267.335,93.872 242.369,103.858 220.399,120.835C201.425,126.827 181.452,133.817 164.475,148.796C132.519,167.77 111.548,189.74 101.561,216.704C80.59,223.694 69.605,239.672 69.605,261.642C54.626,274.624 44.639,291.601 42.642,313.571C34.653,330.548 35.652,347.525 40.645,364.501C39.646,370.493 35.652,377.484 40.645,383.475C35.652,394.46 37.649,405.445 42.642,416.43C45.638,416.43 46.637,429.413 50.631,431.41C52.628,460.37 59.619,479.344 68.607,493.325C78.593,509.303 88.579,523.284 104.557,527.279C120.536,559.235 186.445,557.238 266.336,546.253C273.327,557.238 280.317,565.227 287.307,573.216C298.292,596.184 316.268,610.165 338.238,619.153C356.213,635.131 378.183,646.116 419.127,630.138C458.074,628.141 489.031,619.153 499.018,589.194C509.004,588.195 521.986,583.202 542.958,573.216C557.937,570.22 569.921,562.231 580.906,553.243C591.891,561.232 614.859,557.238 637.828,553.243C673.779,551.246 698.745,546.253 710.728,536.266C727.705,531.273 744.682,526.28 757.664,516.294C787.623,526.28 815.585,530.275 838.553,516.294C905.462,523.284 958.389,509.303 972.37,437.402C983.355,425.418 980.359,407.443 975.366,389.467C986.351,371.492 971.372,356.512 956.392,340.534C954.395,319.563 944.408,304.583 929.429,291.601C931.426,277.62 926.433,265.637 906.46,255.65C898.471,231.683 884.49,216.704 867.514,205.719C867.514,180.753 846.542,164.775 815.585,152.791C791.617,123.831 761.658,102.859 726.706,87.88C712.725,76.895 698.745,75.896 684.764,77.893C668.786,57.921 640.824,52.928 602.876,59.918C592.889,52.928 581.904,52.928 571.918,52.928C548.949,50.93 528.977,49.932 512,49.932C483.04,43.94 459.072,47.934 436.104,55.923Z" style="fill:rgb(240,225,223);stroke:rgb(129,102,71);stroke-width:3.99px;stroke-linecap:butt;stroke-linejoin:miter;stroke-miterlimit:4;"/>
                </g>
                <g id="path2579" transform="matrix(1.07499,0.0657816,-0.0689171,1.12623,371.51,187.997)">
                    <path d="M264.339,546.253C260.344,518.291 273.327,493.325 294.298,472.354C317.266,454.378 312.273,428.414 322.26,420.425C336.24,393.462 373.19,376.485 425.119,367.497C441.097,348.523 462.068,338.537 491.029,339.536C511.001,322.559 528.977,306.581 565.926,306.581C567.923,315.568 557.088,303.663 550.953,317.444C517.998,314.448 505.01,330.548 492.027,346.526C469.059,341.533 449.086,348.523 430.112,370.493C377.184,380.48 339.236,396.458 326.254,423.421C319.264,447.388 311.275,467.361 296.295,475.35C279.318,493.325 264.339,519.29 274.325,557.238C271.329,554.242 268.333,549.249 264.339,546.253Z" style="fill:rgb(102,56,56);"/>
                </g>
                <g id="path2581" transform="matrix(1.07499,0.0657816,-0.0689171,1.12623,371.51,187.997)">
                    <path d="M566.925,53.926C557.937,59.918 561.932,74.898 555.94,85.883C508.005,88.878 481.042,106.854 490.03,139.809C501.015,152.791 503.012,161.779 496.022,167.77C482.041,175.76 477.048,196.731 472.055,219.699C462.068,232.682 456.077,253.653 456.077,275.623C455.078,294.597 427.116,305.582 431.111,321.56C433.108,321.56 434.107,321.56 435.105,321.56C435.105,314.57 439.1,307.579 446.09,301.587C455.078,296.594 459.072,284.611 462.068,268.633C461.07,254.652 465.064,240.671 476.049,225.691C481.042,206.717 483.04,178.755 503.012,169.768C514.996,164.775 508.005,151.792 497.02,135.814C484.038,103.858 518.99,95.869 555.94,90.876C570.919,86.881 566.925,62.914 576.911,54.925C573.915,53.926 569.921,53.926 566.925,53.926Z" style="fill:rgb(102,56,56);"/>
                </g>
                <g id="path2601" transform="matrix(1.07499,0.0657816,-0.0689171,1.12623,371.51,187.997)">
                    <path d="M880.496,276.622C863.519,290.602 846.542,305.582 834.559,320.561C825.571,332.545 824.572,349.522 827.568,368.496C829.566,382.477 831.563,396.458 834.559,409.44C838.553,409.44 841.549,409.44 845.544,410.439C861.522,426.417 901.467,423.421 913.451,429.413C920.441,439.399 926.433,446.389 930.428,444.392C937.418,451.383 942.411,459.372 945.407,467.361C942.411,457.374 948.403,457.374 927.432,433.407C918.444,424.419 897.473,419.426 864.518,414.433C841.549,406.444 836.556,392.463 834.559,374.488C830.564,357.511 828.567,341.533 834.559,324.556C847.541,308.578 863.519,292.6 880.496,276.622Z" style="fill:rgb(102,56,56);"/>
                </g>
                <g id="path2609" transform="matrix(1.07499,0.0657816,-0.0689171,1.12623,371.51,187.997)">
                    <path d="M837.555,406.444C840.551,429.413 848.54,450.384 865.516,466.362C899.47,467.361 920.441,486.335 950.4,487.333L943.41,494.324C929.429,495.322 916.447,483.339 903.464,481.342C892.48,477.347 870.51,476.348 860.523,471.355C845.544,450.384 836.556,428.414 837.555,406.444Z" style="fill:rgb(102,56,56);"/>
                </g>
            </g>
        </g>
    </g>
</svg>
